<?xml version="1.0" encoding="UTF-8" standalone="no"?>
<!DOCTYPE svg PUBLIC "-//W3C//DTD SVG 1.1//EN" "http://www.w3.org/Graphics/SVG/1.1/DTD/svg11.dtd">
<!-- Generated by Microsoft Visio, SVG Export asset_tracker_v2_passive_state.svg Page-1 -->
<svg xmlns="http://www.w3.org/2000/svg" xmlns:xlink="http://www.w3.org/1999/xlink" xmlns:ev="http://www.w3.org/2001/xml-events"
		xmlns:v="http://schemas.microsoft.com/visio/2003/SVGExtensions/" width="7.21282in" height="2.74431in"
		viewBox="0 0 519.323 197.591" xml:space="preserve" color-interpolation-filters="sRGB" class="st15">
	<v:documentProperties v:langID="1035" v:viewMarkup="false"/>

	<style type="text/css">
	<![CDATA[
		.st1 {marker-end:url(#mrkr4-6);stroke:#333f48;stroke-linecap:butt;stroke-width:1}
		.st2 {fill:#333f48;fill-opacity:1;stroke:#333f48;stroke-opacity:1;stroke-width:0.28409090909091}
		.st3 {fill:#ffffff;stroke:none;stroke-linecap:butt;stroke-width:7.2}
		.st4 {fill:#333f48;font-family:Calibri;font-size:0.75em}
		.st5 {fill:#d0df00;stroke:none;stroke-width:1}
		.st6 {font-size:1em}
		.st7 {fill:#768692;stroke:none;stroke-width:1}
		.st8 {fill:#ffffff;font-family:Calibri;font-size:0.75em}
		.st9 {fill:#6ad1e3;stroke:none;stroke-width:1}
		.st10 {fill:#feffff;font-family:Calibri;font-size:0.75em}
		.st11 {fill:#ffcd00;stroke:none;stroke-width:1}
		.st12 {fill:#0033a0;stroke:none;stroke-width:1}
		.st13 {stroke:#333f48;stroke-dasharray:1,4;stroke-linecap:butt;stroke-width:1}
		.st14 {fill:#d9e1e2;stroke:none;stroke-width:1}
		.st15 {fill:none;fill-rule:evenodd;font-size:12px;overflow:visible;stroke-linecap:square;stroke-miterlimit:3}
	]]>
	</style>

	<defs id="Markers">
		<g id="lend4">
			<path d="M 2 1 L 0 0 L 2 -1 L 2 1 " style="stroke:none"/>
		</g>
		<marker id="mrkr4-6" class="st2" v:arrowType="4" v:arrowSize="2" v:setback="7.04" refX="-7.04" orient="auto"
				markerUnits="strokeWidth" overflow="visible">
			<use xlink:href="#lend4" transform="scale(-3.52,-3.52) "/>
		</marker>
	</defs>
	<g v:mID="0" v:index="1" v:groupContext="foregroundPage">
		<title>Page-1</title>
		<v:pageProperties v:drawingScale="0.0393701" v:pageScale="0.0393701" v:drawingUnits="24" v:shadowOffsetX="8.50394"
				v:shadowOffsetY="-8.50394"/>
		<v:layer v:name="Connector" v:index="0"/>
		<g id="shape33-1" v:mID="33" v:groupContext="shape" v:layerMember="0" transform="translate(339.74,-33.5984)">
			<title>Dynamic connector</title>
			<desc>Timer expires</desc>
			<v:textBlock v:margins="rect(4,4,4,4)" v:tabSpace="42.5197"/>
			<v:textRect cx="-118.486" cy="198.299" width="59.64" height="18.8036"/>
			<path d="M0 197.59 L-201.83 197.59 L-201.83 106.84" class="st1"/>
			<rect v:rectContext="textBkgnd" x="-143.284" y="192.899" width="49.5967" height="10.7998" class="st3"/>
			<text x="-143.28" y="201" class="st4" v:langID="1044"><v:paragraph v:horizAlign="1"/><v:tabList/>Timer expires</text>		</g>
		<g id="shape34-9" v:mID="34" v:groupContext="shape" transform="translate(244.78,-131.394)">
			<title>Circle.217</title>
			<desc>Sample data (fill data buffers)</desc>
			<v:userDefs>
				<v:ud v:nameU="visVersion" v:val="VT0(15):26"/>
			</v:userDefs>
			<v:textBlock v:margins="rect(4,4,4,4)"/>
			<v:textRect cx="32.5984" cy="164.992" width="65.2" height="65.1969"/>
			<path d="M0 164.99 A32.5984 32.5984 0 0 1 65.2 164.99 A32.5984 32.5984 0 1 1 -0 164.99 Z" class="st5"/>
			<text x="9.94" y="156.89" class="st4" v:langID="1044"><v:paragraph v:horizAlign="1" v:bulletSize="0.166667"/><v:tabList/>Sample data <v:newlineChar/><tspan
						x="17.56" dy="1.2em" class="st6">(fill data </tspan><tspan x="18.19" dy="1.2em" class="st6">buffers)</tspan></text>		</g>
		<g id="shape38-14" v:mID="38" v:groupContext="shape" transform="translate(105.315,-131.394)">
			<title>Circle.38</title>
			<desc>Wait for movement</desc>
			<v:userDefs>
				<v:ud v:nameU="visVersion" v:val="VT0(15):26"/>
			</v:userDefs>
			<v:textBlock v:margins="rect(4,4,4,4)"/>
			<v:textRect cx="32.5984" cy="164.992" width="65.2" height="65.1969"/>
			<path d="M0 164.99 A32.5984 32.5984 0 0 1 65.2 164.99 A32.5984 32.5984 0 1 1 -0 164.99 Z" class="st7"/>
			<text x="17.57" y="162.29" class="st8" v:langID="1044"><v:paragraph v:horizAlign="1" v:bulletSize="0.166667"/><v:tabList/>Wait for <tspan
						x="12.65" dy="1.2em" class="st6">movement</tspan></text>		</g>
		<g id="shape42-18" v:mID="42" v:groupContext="shape" transform="translate(339.74,-1)">
			<title>Circle.42</title>
			<desc>Start Movement resolution timer</desc>
			<v:userDefs>
				<v:ud v:nameU="visVersion" v:val="VT0(15):26"/>
			</v:userDefs>
			<v:textBlock v:margins="rect(4,4,4,4)"/>
			<v:textRect cx="32.5984" cy="164.992" width="65.2" height="65.1969"/>
			<path d="M0 164.99 A32.5984 32.5984 0 0 1 65.2 164.99 A32.5984 32.5984 0 1 1 -0 164.99 Z" class="st9"/>
			<text x="23.79" y="151.49" class="st10" v:langID="1044"><v:paragraph v:horizAlign="1" v:bulletSize="0.166667"/><v:tabList/>Start <tspan
						x="12.4" dy="1.2em" class="st6">Movement </tspan><tspan x="13.98" dy="1.2em" class="st6">resolution </tspan><tspan
						x="22.66" dy="1.2em" class="st6">timer</tspan></text>		</g>
		<g id="shape44-24" v:mID="44" v:groupContext="shape" transform="translate(1,-131.394)">
			<title>Circle.44</title>
			<desc>Boot</desc>
			<v:userDefs>
				<v:ud v:nameU="visVersion" v:val="VT0(15):26"/>
			</v:userDefs>
			<v:textBlock v:margins="rect(4,4,4,4)"/>
			<v:textRect cx="32.5984" cy="164.992" width="65.2" height="65.1969"/>
			<path d="M0 164.99 A32.5984 32.5984 0 0 1 65.2 164.99 A32.5984 32.5984 0 1 1 -0 164.99 Z" class="st11"/>
			<text x="23.9" y="167.69" class="st4" v:langID="1044"><v:paragraph v:horizAlign="1" v:bulletSize="0.166667"/><v:tabList/>Boot</text>		</g>
		<g id="shape46-27" v:mID="46" v:groupContext="shape" v:layerMember="0" transform="translate(66.1969,-157.047)">
			<title>Dynamic connector.46</title>
			<path d="M0 190.65 L32.08 190.41" class="st1"/>
		</g>
		<g id="shape47-32" v:mID="47" v:groupContext="shape" v:layerMember="0" transform="translate(170.512,-156.905)">
			<title>Dynamic connector.47</title>
			<desc>Movement</desc>
			<v:textBlock v:margins="rect(4,4,4,4)" v:tabSpace="42.5197"/>
			<v:textRect cx="37.1339" cy="190.504" width="50.44" height="18.8036"/>
			<path d="M0 190.5 L67.23 190.5" class="st1"/>
			<rect v:rectContext="textBkgnd" x="16.9366" y="185.104" width="40.3945" height="10.7998" class="st3"/>
			<text x="16.94" y="193.2" class="st4" v:langID="1044"><v:paragraph v:horizAlign="1"/><v:tabList/>Movement</text>		</g>
		<g id="shape49-39" v:mID="49" v:groupContext="shape" transform="translate(453.126,-131.394)">
			<title>Circle.49</title>
			<desc>Publish data (empty data buffers)</desc>
			<v:userDefs>
				<v:ud v:nameU="visVersion" v:val="VT0(15):26"/>
			</v:userDefs>
			<v:textBlock v:margins="rect(4,4,4,4)"/>
			<v:textRect cx="32.5984" cy="164.992" width="65.2" height="65.1969"/>
			<path d="M0 164.99 A32.5984 32.5984 0 0 1 65.2 164.99 A32.5984 32.5984 0 1 1 -0 164.99 Z" class="st12"/>
			<text x="10.16" y="156.89" class="st10" v:langID="1044"><v:paragraph v:horizAlign="1" v:bulletSize="0.166667"/><v:tabList/>Publish data<v:newlineChar/><tspan
						x="10.29" dy="1.2em" class="st6">(empty data </tspan><tspan x="18.19" dy="1.2em" class="st6">buffers)</tspan></text>		</g>
		<g id="shape51-44" v:mID="51" v:groupContext="shape" v:layerMember="0" transform="translate(485.724,-131.394)">
			<title>Dynamic connector.51</title>
			<path d="M0 197.59 L0 295.39 L-73.75 295.39" class="st1"/>
		</g>
		<g id="shape53-49" v:mID="53" v:groupContext="shape" v:layerMember="0" transform="translate(406.496,-195.173)">
			<title>Dynamic connector.53</title>
			<path d="M5.81 197.59 L8.36 388.93" class="st13"/>
		</g>
		<g id="shape55-52" v:mID="55" v:groupContext="shape" transform="translate(339.74,-131.394)">
			<title>Circle.55</title>
			<desc>In connected state?</desc>
			<v:userDefs>
				<v:ud v:nameU="visVersion" v:val="VT0(15):26"/>
			</v:userDefs>
			<v:textBlock v:margins="rect(4,4,4,4)"/>
			<v:textRect cx="32.5984" cy="164.992" width="65.2" height="65.1969"/>
			<path d="M0 164.99 A32.5984 32.5984 0 0 1 65.2 164.99 A32.5984 32.5984 0 1 1 -0 164.99 Z" class="st14"/>
			<text x="8.83" y="162.29" class="st4" v:langID="1044"><v:paragraph v:horizAlign="1" v:bulletSize="0.166667"/><v:tabList/>In connected <tspan
						x="21.34" dy="1.2em" class="st6">state?</tspan></text>		</g>
		<g id="shape56-56" v:mID="56" v:groupContext="shape" v:layerMember="0" transform="translate(309.976,-156.906)">
			<title>Dynamic connector.56</title>
			<path d="M0 190.5 L22.72 190.5" class="st1"/>
		</g>
		<g id="shape57-61" v:mID="57" v:groupContext="shape" v:layerMember="0" transform="translate(404.937,-156.906)">
			<title>Dynamic connector.57</title>
			<desc>Yes</desc>
			<v:textBlock v:margins="rect(4,4,4,4)" v:tabSpace="42.5197"/>
			<v:textRect cx="24.0945" cy="190.504" width="45" height="18.8036"/>
			<path d="M0 190.5 L41.15 190.5" class="st1"/>
			<rect v:rectContext="textBkgnd" x="17.9026" y="185.104" width="12.3838" height="10.7998" class="st3"/>
			<text x="17.9" y="193.2" class="st4" v:langID="1044"><v:paragraph v:horizAlign="1"/><v:tabList/>Yes</text>		</g>
		<g id="shape58-68" v:mID="58" v:groupContext="shape" v:layerMember="0" transform="translate(365.252,-131.394)">
			<title>Dynamic connector.58</title>
			<desc>No</desc>
			<v:textBlock v:margins="rect(4,4,4,4)" v:tabSpace="42.5197"/>
			<v:textRect cx="7.08661" cy="230.189" width="45" height="18.8036"/>
			<path d="M7.09 197.59 L7.09 255.75" class="st1"/>
			<rect v:rectContext="textBkgnd" x="1.80878" y="224.789" width="10.5557" height="10.7998" class="st3"/>
			<text x="1.81" y="232.89" class="st4" v:langID="1044"><v:paragraph v:horizAlign="1"/><v:tabList/>No</text>		</g>
	</g>
</svg>
