<?xml version="1.0" encoding="UTF-8" standalone="no"?>
<!DOCTYPE svg PUBLIC "-//W3C//DTD SVG 1.1//EN" "http://www.w3.org/Graphics/SVG/1.1/DTD/svg11.dtd">
<!-- Generated by Microsoft Visio, SVG Export asset_tracker_v2_active_state.svg Page-1 -->
<svg xmlns="http://www.w3.org/2000/svg" xmlns:xlink="http://www.w3.org/1999/xlink" xmlns:ev="http://www.w3.org/2001/xml-events"
		xmlns:v="http://schemas.microsoft.com/visio/2003/SVGExtensions/" width="5.45263in" height="4.63408in"
		viewBox="0 0 392.589 333.654" xml:space="preserve" color-interpolation-filters="sRGB" class="st13">
	<v:documentProperties v:langID="1035" v:viewMarkup="false"/>

	<style type="text/css">
	<![CDATA[
		.st1 {marker-end:url(#mrkr4-6);stroke:#333f48;stroke-linecap:butt;stroke-width:1}
		.st2 {fill:#333f48;fill-opacity:1;stroke:#333f48;stroke-opacity:1;stroke-width:0.28409090909091}
		.st3 {fill:#ffffff;stroke:none;stroke-linecap:butt;stroke-width:7.2}
		.st4 {fill:#333f48;font-family:Calibri;font-size:0.75em}
		.st5 {fill:#d0df00;stroke:none;stroke-width:1}
		.st6 {font-size:1em}
		.st7 {fill:#d9e1e2;stroke:none;stroke-width:1}
		.st8 {fill:#6ad1e3;stroke:none;stroke-width:1}
		.st9 {fill:#feffff;font-family:Calibri;font-size:0.75em}
		.st10 {fill:#ffcd00;stroke:none;stroke-width:1}
		.st11 {fill:#0033a0;stroke:none;stroke-width:1}
		.st12 {stroke:#333f48;stroke-dasharray:1,4;stroke-linecap:butt;stroke-width:1}
		.st13 {fill:none;fill-rule:evenodd;font-size:12px;overflow:visible;stroke-linecap:square;stroke-miterlimit:3}
	]]>
	</style>

	<defs id="Markers">
		<g id="lend4">
			<path d="M 2 1 L 0 0 L 2 -1 L 2 1 " style="stroke:none"/>
		</g>
		<marker id="mrkr4-6" class="st2" v:arrowType="4" v:arrowSize="2" v:setback="7.04" refX="-7.04" orient="auto"
				markerUnits="strokeWidth" overflow="visible">
			<use xlink:href="#lend4" transform="scale(-3.52,-3.52) "/>
		</marker>
	</defs>
	<g v:mID="0" v:index="1" v:groupContext="foregroundPage">
		<title>Page-1</title>
		<v:pageProperties v:drawingScale="0.0393701" v:pageScale="0.0393701" v:drawingUnits="24" v:shadowOffsetX="8.50394"
				v:shadowOffsetY="-8.50394"/>
		<v:layer v:name="Connector" v:index="0"/>
		<g id="shape33-1" v:mID="33" v:groupContext="shape" v:layerMember="0" transform="translate(158.733,-130.511)">
			<title>Dynamic connector</title>
			<desc>Timer expires</desc>
			<v:textBlock v:margins="rect(4,4,4,4)" v:tabSpace="42.5197"/>
			<v:textRect cx="-128.915" cy="330.243" width="59.64" height="18.8036"/>
			<path d="M0 333.65 L-128.21 333.65 L-128.21 164.11 L-100.17 164.11" class="st1"/>
			<rect v:rectContext="textBkgnd" x="-153.714" y="324.843" width="49.5967" height="10.7998" class="st3"/>
			<text x="-153.71" y="332.94" class="st4" v:langID="1044"><v:paragraph v:horizAlign="1"/><v:tabList/>Timer expires</text>		</g>
		<g id="shape34-9" v:mID="34" v:groupContext="shape" transform="translate(65.6049,-267.457)">
			<title>Circle.217</title>
			<desc>Sample data (fill data buffers)</desc>
			<v:userDefs>
				<v:ud v:nameU="visVersion" v:val="VT0(15):26"/>
			</v:userDefs>
			<v:textBlock v:margins="rect(4,4,4,4)"/>
			<v:textRect cx="32.5984" cy="301.055" width="65.2" height="65.1969"/>
			<path d="M0 301.06 A32.5984 32.5984 0 0 1 65.2 301.06 A32.5984 32.5984 0 1 1 -0 301.06 Z" class="st5"/>
			<text x="9.94" y="292.96" class="st4" v:langID="1044"><v:paragraph v:horizAlign="1" v:bulletSize="0.166667"/><v:tabList/>Sample data <v:newlineChar/><tspan
						x="17.56" dy="1.2em" class="st6">(fill data </tspan><tspan x="18.19" dy="1.2em" class="st6">buffers)</tspan></text>		</g>
		<g id="shape37-14" v:mID="37" v:groupContext="shape" v:layerMember="0" transform="translate(130.802,-292.969)">
			<title>Dynamic connector.37</title>
			<path d="M0 326.57 L20.74 326.57" class="st1"/>
		</g>
		<g id="shape38-19" v:mID="38" v:groupContext="shape" transform="translate(158.581,-267.457)">
			<title>Circle.38</title>
			<desc>In connected state?</desc>
			<v:userDefs>
				<v:ud v:nameU="visVersion" v:val="VT0(15):26"/>
			</v:userDefs>
			<v:textBlock v:margins="rect(4,4,4,4)"/>
			<v:textRect cx="32.5984" cy="301.055" width="65.2" height="65.1969"/>
			<path d="M0 301.06 A32.5984 32.5984 0 0 1 65.2 301.06 A32.5984 32.5984 0 1 1 -0 301.06 Z" class="st7"/>
			<text x="8.83" y="298.36" class="st4" v:langID="1044"><v:paragraph v:horizAlign="1" v:bulletSize="0.166667"/><v:tabList/>In connected <tspan
						x="21.34" dy="1.2em" class="st6">state?</tspan></text>		</g>
		<g id="shape42-23" v:mID="42" v:groupContext="shape" transform="translate(158.581,-101.051)">
			<title>Circle.42</title>
			<desc>Start Active wait timeout timer</desc>
			<v:userDefs>
				<v:ud v:nameU="visVersion" v:val="VT0(15):26"/>
			</v:userDefs>
			<v:textBlock v:margins="rect(4,4,4,4)"/>
			<v:textRect cx="32.5984" cy="301.055" width="65.2" height="65.1969"/>
			<path d="M0 301.06 A32.5984 32.5984 0 0 1 65.2 301.06 A32.5984 32.5984 0 1 1 -0 301.06 Z" class="st8"/>
			<text x="11.46" y="292.96" class="st9" v:langID="1044"><v:paragraph v:horizAlign="1" v:bulletSize="0.166667"/><v:tabList/>Start Active <tspan
						x="9.05" dy="1.2em" class="st6">wait timeout </tspan><tspan x="22.66" dy="1.2em" class="st6">timer</tspan></text>		</g>
		<g id="shape44-28" v:mID="44" v:groupContext="shape" transform="translate(158.581,-1)">
			<title>Circle.44</title>
			<desc>Boot</desc>
			<v:userDefs>
				<v:ud v:nameU="visVersion" v:val="VT0(15):26"/>
			</v:userDefs>
			<v:textBlock v:margins="rect(4,4,4,4)"/>
			<v:textRect cx="32.5984" cy="301.055" width="65.2" height="65.1969"/>
			<path d="M0 301.06 A32.5984 32.5984 0 0 1 65.2 301.06 A32.5984 32.5984 0 1 1 -0 301.06 Z" class="st10"/>
			<text x="23.9" y="303.76" class="st4" v:langID="1044"><v:paragraph v:horizAlign="1" v:bulletSize="0.166667"/><v:tabList/>Boot</text>		</g>
		<g id="shape46-31" v:mID="46" v:groupContext="shape" v:layerMember="0" transform="translate(184.093,-66.1969)">
			<title>Dynamic connector.46</title>
			<path d="M7.09 333.65 L7.09 305.84" class="st1"/>
		</g>
		<g id="shape47-36" v:mID="47" v:groupContext="shape" v:layerMember="0" transform="translate(223.778,-306.717)">
			<title>Dynamic connector.47</title>
			<desc>Yes</desc>
			<v:textBlock v:margins="rect(4,4,4,4)" v:tabSpace="42.5197"/>
			<v:textRect cx="51.3071" cy="340.74" width="45" height="18.8036"/>
			<path d="M0 340.31 L95.57 341.11" class="st1"/>
			<rect v:rectContext="textBkgnd" x="45.1152" y="335.34" width="12.3838" height="10.7998" class="st3"/>
			<text x="45.12" y="343.44" class="st4" v:langID="1044"><v:paragraph v:horizAlign="1"/><v:tabList/>Yes</text>		</g>
		<g id="shape49-43" v:mID="49" v:groupContext="shape" transform="translate(326.392,-266.606)">
			<title>Circle.49</title>
			<desc>Publish data (empty data buffers)</desc>
			<v:userDefs>
				<v:ud v:nameU="visVersion" v:val="VT0(15):26"/>
			</v:userDefs>
			<v:textBlock v:margins="rect(4,4,4,4)"/>
			<v:textRect cx="32.5984" cy="301.055" width="65.2" height="65.1969"/>
			<path d="M0 301.06 A32.5984 32.5984 0 0 1 65.2 301.06 A32.5984 32.5984 0 1 1 -0 301.06 Z" class="st11"/>
			<text x="10.16" y="292.96" class="st9" v:langID="1044"><v:paragraph v:horizAlign="1" v:bulletSize="0.166667"/><v:tabList/>Publish data<v:newlineChar/><tspan
						x="10.29" dy="1.2em" class="st6">(empty data </tspan><tspan x="18.19" dy="1.2em" class="st6">buffers)</tspan></text>		</g>
		<g id="shape51-48" v:mID="51" v:groupContext="shape" v:layerMember="0" transform="translate(358.991,-266.606)">
			<title>Dynamic connector.51</title>
			<path d="M0 333.65 L0 466.61 L-128.17 466.61" class="st1"/>
		</g>
		<g id="shape53-53" v:mID="53" v:groupContext="shape" v:layerMember="0" transform="translate(240.048,-326.412)">
			<title>Dynamic connector.53</title>
			<path d="M-6.97 333.65 L-7.2 659.07" class="st12"/>
		</g>
		<g id="shape54-56" v:mID="54" v:groupContext="shape" v:layerMember="0" transform="translate(184.093,-267.457)">
			<title>Dynamic connector.54</title>
			<desc>No</desc>
			<v:textBlock v:margins="rect(4,4,4,4)" v:tabSpace="42.5197"/>
			<v:textRect cx="7.08661" cy="384.258" width="45" height="18.8036"/>
			<path d="M7.09 333.65 L7.09 427.82" class="st1"/>
			<rect v:rectContext="textBkgnd" x="1.80878" y="378.858" width="10.5557" height="10.7998" class="st3"/>
			<text x="1.81" y="386.96" class="st4" v:langID="1044"><v:paragraph v:horizAlign="1"/><v:tabList/>No</text>		</g>
	</g>
</svg>
