<svg version="1.1" xmlns="http://www.w3.org/2000/svg" xmlns:xlink="http://www.w3.org/1999/xlink" width="1281" height="2293"><desc>%09title%20QoS%20library%20implementation%20sequence%20diagram%0A%0Abottomparticipants%0A%0Aparticipant%20%22Transport%20library%22%20as%20trans%0Aparticipant%20%22Application%22%20as%20app%0Aparticipant%20%22QoS%22%20as%20qos%0Aparticipant%20%22List%22%20as%20list%0Aparticipant%20%22Kernel%22%20as%20kernel%0A%0A%0A%0A%0Afontfamily%20Consolas%0Aautoactivation%20on%0A%0Aactivate%20app%0A%0A%23%20Initialize%20QoS%20library%0A%0Aapp-%3Eqos%3Aqos_init(handler)%0Aapp%3C--qos%3AReturn%20value%0A%0A%23%20Single%20QoS%201%20message%20unACK%0A%0Aapp-%3Eqos%3Aqos_add_message(message)%0Aqos-%3Elist%3Alist_append(message)%0Aqos%3C--list%3A%20Return%20value%0Aqos-%3Ekernel%3Ak_work_reschedule(delayed_work%2C%20backoff)%0Akernel--%3Eqos%3AReturn%20value%0Aqos-%3Eapp%3AQOS_EVT_MESSAGE_NEW%0A%0Aapp-%3Etrans%3Atransport_send(message)%0Atrans--%3Eapp%3A%20Return%20value%0A%0A%0Aapp--%3Eqos%3A%0Aqos--%3Eapp%3AReturn%20value%0A%0A%0A%0Atrans-%3Eapp%3A%20TRANSPORT_MESSAGE_ACKNOWLEDGED%0A%0Aapp-%3Eqos%3Aqos_message_remove(id)%0A%0Aqos-%3Elist%3Alist_remove(id)%0Alist--%3Eqos%3AReturn%20value%0A%0Aqos-%3Ekernel%3Ak_work_cancel_delayable(delayed_work)%0Akernel--%3Eqos%3AReturn%20value%0Aqos--%3Eapp%3AReturn%20value%0Aapp--%3Etrans%3A%0A%0A%23%20Single%20QoS%201%20message%20ACKed%0A%0Agroup%20Single%20unACKed%20message%0A%0Aapp-%3Eqos%3Aqos_add_message(message)%0Aqos-%3Elist%3Alist_append(message)%0Aqos%3C--list%3A%20Return%20value%0Aqos-%3Ekernel%3Ak_work_reschedule(delayed_work%2C%20backoff)%0Akernel--%3Eqos%3AReturn%20value%0Aqos-%3Eapp%3AQOS_EVT_MESSAGE_NEW%0A%0Aapp-%3Etrans%3Atransport_send(message)%0Atrans--%3Eapp%3A%20Return%20value%0A%0A%0Aapp--%3Eqos%3A%0Aqos--%3Eapp%3AReturn%20value%0A%0A%0Akernel-%3Ekernel%3Ak_work_timer_expire%0Akernel-%3Eqos%3Atimeout_handler_work_fn()%0A%0Aqos-%3Eapp%3AQOS_EVT_MESSAGE_EXPIRED%0A%0Aapp-%3Etrans%3Atransport_send(message)%0Atrans--%3Eapp%3A%20Return%20value%0Aapp--%3Eqos%3A%0Aqos--%3Ekernel%3A%0A%0Atrans-%3Eapp%3A%20TRANSPORT_MESSAGE_ACKNOWLEDGED%0A%0Aapp-%3Eqos%3Aqos_message_remove(id)%0A%0Aqos-%3Elist%3Alist_remove(id)%0Alist--%3Eqos%3AReturn%20value%0A%0Aqos-%3Ekernel%3Ak_work_cancel_delayable(delayed_work)%0Akernel--%3Eqos%3AReturn%20value%0Aqos--%3Eapp%3AReturn%20value%0Aapp--%3Etrans%3A%0A%0Aend</desc><defs/><g><g/><g/><g/><g/><g/><g/><g/><g/><g/><g/><g/><g/><g/><g/><g/><g/><g/><g/><g/><g/><g/><g/><g/><g/><g/><g/><g/><g/><g/><g/><g/><g/><g/><g/><g/><g/><g/><g/><g/><g/><g/><g/><g/><g/><g/><g/><g/><g/><g/><g/><g><rect fill="white" stroke="none" x="0" y="0" width="1281" height="2293"/></g><g><text fill="black" stroke="none" font-family="sans-serif" font-size="16.5pt" font-style="normal" font-weight="normal" text-decoration="normal" x="414.3048275652018" y="24.50280495" text-anchor="start" dominant-baseline="alphabetic" xml:space="preserve">QoS library implementation sequence diagram</text></g><g/><g><path fill="none" stroke="black" paint-order="fill stroke markers" d=" M 81.67601649999999 95.887643371 L 81.67601649999999 2235.799275671001" stroke-miterlimit="10" stroke-width="1.3612669416666667" stroke-dasharray="12.565541,5.445067766666667"/><path fill="none" stroke="black" paint-order="fill stroke markers" d=" M 383.3758085641927 95.887643371 L 383.3758085641927 2235.799275671001" stroke-miterlimit="10" stroke-width="1.3612669416666667" stroke-dasharray="12.565541,5.445067766666667"/><path fill="none" stroke="black" paint-order="fill stroke markers" d=" M 644.8823929522135 95.887643371 L 644.8823929522135 2235.799275671001" stroke-miterlimit="10" stroke-width="1.3612669416666667" stroke-dasharray="12.565541,5.445067766666667"/><path fill="none" stroke="black" paint-order="fill stroke markers" d=" M 865.9808361394531 95.887643371 L 865.9808361394531 2235.799275671001" stroke-miterlimit="10" stroke-width="1.3612669416666667" stroke-dasharray="12.565541,5.445067766666667"/><path fill="none" stroke="black" paint-order="fill stroke markers" d=" M 1065.299008260026 95.887643371 L 1065.299008260026 2235.799275671001" stroke-miterlimit="10" stroke-width="1.3612669416666667" stroke-dasharray="12.565541,5.445067766666667"/></g><g><path fill="none" stroke="none"/><g><path fill="white" stroke="black" paint-order="fill stroke markers" d=" M 10.863591061101545 51.945946494000005 L 152.48844193889843 51.945946494000005 L 152.48844193889843 95.887643371 L 10.863591061101545 95.887643371 L 10.863591061101545 51.945946494000005 Z" stroke-miterlimit="10" stroke-width="2.613632528" stroke-dasharray=""/></g><g><text fill="black" stroke="none" font-family="sans-serif" font-size="11pt" font-style="normal" font-weight="normal" text-decoration="normal" x="28.58728664160155" y="79.55244007099999" text-anchor="start" dominant-baseline="alphabetic" xml:space="preserve">Transport library</text></g><path fill="none" stroke="none"/><g><path fill="white" stroke="black" paint-order="fill stroke markers" d=" M 329.7931499709974 51.945946494000005 L 436.958467157388 51.945946494000005 L 436.958467157388 95.887643371 L 329.7931499709974 95.887643371 L 329.7931499709974 51.945946494000005 Z" stroke-miterlimit="10" stroke-width="2.613632528" stroke-dasharray=""/></g><g><text fill="black" stroke="none" font-family="sans-serif" font-size="11pt" font-style="normal" font-weight="normal" text-decoration="normal" x="347.5168455514974" y="79.55244007099999" text-anchor="start" dominant-baseline="alphabetic" xml:space="preserve">Application</text></g><path fill="none" stroke="none"/><g><path fill="white" stroke="black" paint-order="fill stroke markers" d=" M 612.4915525963229 51.945946494000005 L 677.2732333081042 51.945946494000005 L 677.2732333081042 95.887643371 L 612.4915525963229 95.887643371 L 612.4915525963229 51.945946494000005 Z" stroke-miterlimit="10" stroke-width="2.613632528" stroke-dasharray=""/></g><g><text fill="black" stroke="none" font-family="sans-serif" font-size="11pt" font-style="normal" font-weight="normal" text-decoration="normal" x="630.2152481768229" y="79.55244007099999" text-anchor="start" dominant-baseline="alphabetic" xml:space="preserve">QoS</text></g><path fill="none" stroke="none"/><g><path fill="white" stroke="black" paint-order="fill stroke markers" d=" M 836.8505624949883 51.945946494000005 L 895.111109783918 51.945946494000005 L 895.111109783918 95.887643371 L 836.8505624949883 95.887643371 L 836.8505624949883 51.945946494000005 Z" stroke-miterlimit="10" stroke-width="2.613632528" stroke-dasharray=""/></g><g><text fill="black" stroke="none" font-family="sans-serif" font-size="11pt" font-style="normal" font-weight="normal" text-decoration="normal" x="854.5742580754883" y="79.55244007099999" text-anchor="start" dominant-baseline="alphabetic" xml:space="preserve">List</text></g><path fill="none" stroke="none"/><g><path fill="white" stroke="black" paint-order="fill stroke markers" d=" M 1026.3870649988621 51.945946494000005 L 1104.2109515211903 51.945946494000005 L 1104.2109515211903 95.887643371 L 1026.3870649988621 95.887643371 L 1026.3870649988621 51.945946494000005 Z" stroke-miterlimit="10" stroke-width="2.613632528" stroke-dasharray=""/></g><g><text fill="black" stroke="none" font-family="sans-serif" font-size="11pt" font-style="normal" font-weight="normal" text-decoration="normal" x="1044.110760579362" y="79.55244007099999" text-anchor="start" dominant-baseline="alphabetic" xml:space="preserve">Kernel</text></g><path fill="none" stroke="none"/><g><path fill="white" stroke="black" paint-order="fill stroke markers" d=" M 10.863591061101545 2235.799275671001 L 152.48844193889843 2235.799275671001 L 152.48844193889843 2279.740972548001 L 10.863591061101545 2279.740972548001 L 10.863591061101545 2235.799275671001 Z" stroke-miterlimit="10" stroke-width="2.613632528" stroke-dasharray=""/></g><g><text fill="black" stroke="none" font-family="sans-serif" font-size="11pt" font-style="normal" font-weight="normal" text-decoration="normal" x="28.58728664160155" y="2263.405769248001" text-anchor="start" dominant-baseline="alphabetic" xml:space="preserve">Transport library</text></g><path fill="none" stroke="none"/><g><path fill="white" stroke="black" paint-order="fill stroke markers" d=" M 329.7931499709974 2235.799275671001 L 436.958467157388 2235.799275671001 L 436.958467157388 2279.740972548001 L 329.7931499709974 2279.740972548001 L 329.7931499709974 2235.799275671001 Z" stroke-miterlimit="10" stroke-width="2.613632528" stroke-dasharray=""/></g><g><text fill="black" stroke="none" font-family="sans-serif" font-size="11pt" font-style="normal" font-weight="normal" text-decoration="normal" x="347.5168455514974" y="2263.405769248001" text-anchor="start" dominant-baseline="alphabetic" xml:space="preserve">Application</text></g><path fill="none" stroke="none"/><g><path fill="white" stroke="black" paint-order="fill stroke markers" d=" M 612.4915525963229 2235.799275671001 L 677.2732333081042 2235.799275671001 L 677.2732333081042 2279.740972548001 L 612.4915525963229 2279.740972548001 L 612.4915525963229 2235.799275671001 Z" stroke-miterlimit="10" stroke-width="2.613632528" stroke-dasharray=""/></g><g><text fill="black" stroke="none" font-family="sans-serif" font-size="11pt" font-style="normal" font-weight="normal" text-decoration="normal" x="630.2152481768229" y="2263.405769248001" text-anchor="start" dominant-baseline="alphabetic" xml:space="preserve">QoS</text></g><path fill="none" stroke="none"/><g><path fill="white" stroke="black" paint-order="fill stroke markers" d=" M 836.8505624949883 2235.799275671001 L 895.111109783918 2235.799275671001 L 895.111109783918 2279.740972548001 L 836.8505624949883 2279.740972548001 L 836.8505624949883 2235.799275671001 Z" stroke-miterlimit="10" stroke-width="2.613632528" stroke-dasharray=""/></g><g><text fill="black" stroke="none" font-family="sans-serif" font-size="11pt" font-style="normal" font-weight="normal" text-decoration="normal" x="854.5742580754883" y="2263.405769248001" text-anchor="start" dominant-baseline="alphabetic" xml:space="preserve">List</text></g><path fill="none" stroke="none"/><g><path fill="white" stroke="black" paint-order="fill stroke markers" d=" M 1026.3870649988621 2235.799275671001 L 1104.2109515211903 2235.799275671001 L 1104.2109515211903 2279.740972548001 L 1026.3870649988621 2279.740972548001 L 1026.3870649988621 2235.799275671001 Z" stroke-miterlimit="10" stroke-width="2.613632528" stroke-dasharray=""/></g><g><text fill="black" stroke="none" font-family="sans-serif" font-size="11pt" font-style="normal" font-weight="normal" text-decoration="normal" x="1044.110760579362" y="2263.405769248001" text-anchor="start" dominant-baseline="alphabetic" xml:space="preserve">Kernel</text></g></g><g><path fill="white" stroke="black" paint-order="fill stroke markers" d=" M 375.2082069141927 104.05524502099999 L 391.5434102141927 104.05524502099999 L 391.5434102141927 2219.464072371001 L 375.2082069141927 2219.464072371001 L 375.2082069141927 104.05524502099999" stroke-miterlimit="10" stroke-width="1.3612669416666667" stroke-dasharray=""/><path fill="white" stroke="black" paint-order="fill stroke markers" d=" M 636.7147913022135 148.16029393099998 L 653.0499946022136 148.16029393099998 L 653.0499946022136 192.26534284099998 L 636.7147913022135 192.26534284099998 L 636.7147913022135 148.16029393099998" stroke-miterlimit="10" stroke-width="1.3612669416666667" stroke-dasharray=""/><path fill="white" stroke="black" paint-order="fill stroke markers" d=" M 636.7147913022135 236.37039175099997 L 653.0499946022136 236.37039175099997 L 653.0499946022136 633.315831941 L 636.7147913022135 633.315831941 L 636.7147913022135 236.37039175099997" stroke-miterlimit="10" stroke-width="1.3612669416666667" stroke-dasharray=""/><path fill="white" stroke="black" paint-order="fill stroke markers" d=" M 857.8132344894531 280.475440661 L 874.1484377894532 280.475440661 L 874.1484377894532 324.580489571 L 857.8132344894531 324.580489571 L 857.8132344894531 280.475440661" stroke-miterlimit="10" stroke-width="1.3612669416666667" stroke-dasharray=""/><path fill="white" stroke="black" paint-order="fill stroke markers" d=" M 1057.131406610026 368.685538481 L 1073.4666099100261 368.685538481 L 1073.4666099100261 412.790587391 L 1057.131406610026 412.790587391 L 1057.131406610026 368.685538481" stroke-miterlimit="10" stroke-width="1.3612669416666667" stroke-dasharray=""/><path fill="white" stroke="black" paint-order="fill stroke markers" d=" M 383.3758085641927 456.89563630099997 L 399.7110118641927 456.89563630099997 L 399.7110118641927 589.210783031 L 383.3758085641927 589.210783031 L 383.3758085641927 456.89563630099997" stroke-miterlimit="10" stroke-width="1.3612669416666667" stroke-dasharray=""/><path fill="white" stroke="black" paint-order="fill stroke markers" d=" M 73.50841485 501.00068521099996 L 89.84361814999998 501.00068521099996 L 89.84361814999998 545.105734121 L 73.50841485 545.105734121 L 73.50841485 501.00068521099996" stroke-miterlimit="10" stroke-width="1.3612669416666667" stroke-dasharray=""/><path fill="white" stroke="black" paint-order="fill stroke markers" d=" M 383.3758085641927 677.4208808510001 L 399.7110118641927 677.4208808510001 L 399.7110118641927 986.1562232210005 L 383.3758085641927 986.1562232210005 L 383.3758085641927 677.4208808510001" stroke-miterlimit="10" stroke-width="1.3612669416666667" stroke-dasharray=""/><path fill="white" stroke="black" paint-order="fill stroke markers" d=" M 636.7147913022135 721.5259297610002 L 653.0499946022136 721.5259297610002 L 653.0499946022136 942.0511743110004 L 636.7147913022135 942.0511743110004 L 636.7147913022135 721.5259297610002" stroke-miterlimit="10" stroke-width="1.3612669416666667" stroke-dasharray=""/><path fill="white" stroke="black" paint-order="fill stroke markers" d=" M 857.8132344894531 765.6309786710002 L 874.1484377894532 765.6309786710002 L 874.1484377894532 809.7360275810003 L 857.8132344894531 809.7360275810003 L 857.8132344894531 765.6309786710002" stroke-miterlimit="10" stroke-width="1.3612669416666667" stroke-dasharray=""/><path fill="white" stroke="black" paint-order="fill stroke markers" d=" M 1057.131406610026 853.8410764910003 L 1073.4666099100261 853.8410764910003 L 1073.4666099100261 897.9461254010004 L 1057.131406610026 897.9461254010004 L 1057.131406610026 853.8410764910003" stroke-miterlimit="10" stroke-width="1.3612669416666667" stroke-dasharray=""/><path fill="white" stroke="black" paint-order="fill stroke markers" d=" M 636.7147913022135 1074.3663210410004 L 653.0499946022136 1074.3663210410004 L 653.0499946022136 1471.311761231001 L 636.7147913022135 1471.311761231001 L 636.7147913022135 1074.3663210410004" stroke-miterlimit="10" stroke-width="1.3612669416666667" stroke-dasharray=""/><path fill="white" stroke="black" paint-order="fill stroke markers" d=" M 857.8132344894531 1118.4713699510005 L 874.1484377894532 1118.4713699510005 L 874.1484377894532 1162.5764188610005 L 857.8132344894531 1162.5764188610005 L 857.8132344894531 1118.4713699510005" stroke-miterlimit="10" stroke-width="1.3612669416666667" stroke-dasharray=""/><path fill="white" stroke="black" paint-order="fill stroke markers" d=" M 1057.131406610026 1206.6814677710006 L 1073.4666099100261 1206.6814677710006 L 1073.4666099100261 1250.7865166810006 L 1057.131406610026 1250.7865166810006 L 1057.131406610026 1206.6814677710006" stroke-miterlimit="10" stroke-width="1.3612669416666667" stroke-dasharray=""/><path fill="white" stroke="black" paint-order="fill stroke markers" d=" M 383.3758085641927 1294.8915655910007 L 399.7110118641927 1294.8915655910007 L 399.7110118641927 1427.2067123210009 L 383.3758085641927 1427.2067123210009 L 383.3758085641927 1294.8915655910007" stroke-miterlimit="10" stroke-width="1.3612669416666667" stroke-dasharray=""/><path fill="white" stroke="black" paint-order="fill stroke markers" d=" M 73.50841485 1338.9966145010007 L 89.84361814999998 1338.9966145010007 L 89.84361814999998 1383.1016634110008 L 73.50841485 1383.1016634110008 L 73.50841485 1338.9966145010007" stroke-miterlimit="10" stroke-width="1.3612669416666667" stroke-dasharray=""/><path fill="white" stroke="black" paint-order="fill stroke markers" d=" M 1057.131406610026 1536.6525744310009 L 1073.4666099100261 1536.6525744310009 L 1073.4666099100261 2219.464072371001 L 1057.131406610026 2219.464072371001 L 1057.131406610026 1536.6525744310009" stroke-miterlimit="10" stroke-width="1.3612669416666667" stroke-dasharray=""/><path fill="white" stroke="black" paint-order="fill stroke markers" d=" M 636.7147913022135 1580.757623341001 L 653.0499946022136 1580.757623341001 L 653.0499946022136 1801.2828678910012 L 636.7147913022135 1801.2828678910012 L 636.7147913022135 1580.757623341001" stroke-miterlimit="10" stroke-width="1.3612669416666667" stroke-dasharray=""/><path fill="white" stroke="black" paint-order="fill stroke markers" d=" M 383.3758085641927 1624.862672251001 L 399.7110118641927 1624.862672251001 L 399.7110118641927 1757.177818981001 L 383.3758085641927 1757.177818981001 L 383.3758085641927 1624.862672251001" stroke-miterlimit="10" stroke-width="1.3612669416666667" stroke-dasharray=""/><path fill="white" stroke="black" paint-order="fill stroke markers" d=" M 73.50841485 1668.967721161001 L 89.84361814999998 1668.967721161001 L 89.84361814999998 1713.072770071001 L 73.50841485 1713.072770071001 L 73.50841485 1668.967721161001" stroke-miterlimit="10" stroke-width="1.3612669416666667" stroke-dasharray=""/><path fill="white" stroke="black" paint-order="fill stroke markers" d=" M 383.3758085641927 1845.3879168010012 L 399.7110118641927 1845.3879168010012 L 399.7110118641927 2154.123259171001 L 383.3758085641927 2154.123259171001 L 383.3758085641927 1845.3879168010012" stroke-miterlimit="10" stroke-width="1.3612669416666667" stroke-dasharray=""/><path fill="white" stroke="black" paint-order="fill stroke markers" d=" M 636.7147913022135 1889.4929657110013 L 653.0499946022136 1889.4929657110013 L 653.0499946022136 2110.018210261001 L 636.7147913022135 2110.018210261001 L 636.7147913022135 1889.4929657110013" stroke-miterlimit="10" stroke-width="1.3612669416666667" stroke-dasharray=""/><path fill="white" stroke="black" paint-order="fill stroke markers" d=" M 857.8132344894531 1933.5980146210013 L 874.1484377894532 1933.5980146210013 L 874.1484377894532 1977.7030635310014 L 857.8132344894531 1977.7030635310014 L 857.8132344894531 1933.5980146210013" stroke-miterlimit="10" stroke-width="1.3612669416666667" stroke-dasharray=""/><path fill="white" stroke="black" paint-order="fill stroke markers" d=" M 1065.299008260026 2021.8081124410014 L 1081.6342115600262 2021.8081124410014 L 1081.6342115600262 2065.9131613510012 L 1065.299008260026 2065.9131613510012 L 1065.299008260026 2021.8081124410014" stroke-miterlimit="10" stroke-width="1.3612669416666667" stroke-dasharray=""/><g><g><rect fill="white" stroke="none" x="443.3561568327929" y="128.55804997099997" width="141.54588785082032" height="19.602243960000003"/></g><text fill="black" stroke="none" font-family="Consolas" font-size="11pt" font-style="normal" font-weight="normal" text-decoration="normal" x="445.61795421279294" y="142.12883425099997" text-anchor="start" dominant-baseline="alphabetic" xml:space="preserve">qos_init(handler)</text></g><g><path fill="none" stroke="black" paint-order="fill stroke markers" d=" M 391.5434102141927 148.16029393099998 L 623.2654739185468 148.16029393099998" stroke-miterlimit="10" stroke-width="1.3612669416666667" stroke-dasharray=""/><g transform="translate(636.7147913022135,148.16029393099998) translate(-636.7147913022135,-148.16029393099998)"><path fill="black" stroke="none" paint-order="stroke fill markers" d=" M 623.1021218855468 141.35395922266665 L 636.7147913022135 148.16029393099998 L 623.1021218855468 154.96662863933332 Z"/></g></g><g><g><rect fill="white" stroke="none" x="463.5064940520312" y="172.66309888099997" width="101.24521341234374" height="19.602243960000003"/></g><text fill="black" stroke="none" font-family="Consolas" font-size="11pt" font-style="normal" font-weight="normal" text-decoration="normal" x="465.7682914320312" y="186.23388316099997" text-anchor="start" dominant-baseline="alphabetic" xml:space="preserve">Return value</text></g><g><path fill="none" stroke="black" paint-order="fill stroke markers" d=" M 636.7147913022135 192.26534284099998 L 404.99272759785936 192.26534284099998" stroke-miterlimit="10" stroke-width="1.3612669416666667" stroke-dasharray="6.53408132"/><g transform="translate(391.5434102141927,192.26534284099998) translate(-391.5434102141927,-192.26534284099998)"><path fill="black" stroke="none" paint-order="stroke fill markers" d=" M 405.1560796308594 185.45900813266664 L 391.5434102141927 192.26534284099998 L 405.1560796308594 199.07167754933332 Z"/></g></g><g><g><rect fill="white" stroke="none" x="415.1456847258593" y="216.76814779099996" width="197.9668320646875" height="19.602243960000003"/></g><text fill="black" stroke="none" font-family="Consolas" font-size="11pt" font-style="normal" font-weight="normal" text-decoration="normal" x="417.40748210585934" y="230.33893207099996" text-anchor="start" dominant-baseline="alphabetic" xml:space="preserve">qos_add_message(message)</text></g><g><path fill="none" stroke="black" paint-order="fill stroke markers" d=" M 391.5434102141927 236.37039175099997 L 623.2654739185468 236.37039175099997" stroke-miterlimit="10" stroke-width="1.3612669416666667" stroke-dasharray=""/><g transform="translate(636.7147913022135,236.37039175099997) translate(-636.7147913022135,-236.37039175099997)"><path fill="black" stroke="none" paint-order="stroke fill markers" d=" M 623.1021218855468 229.56405704266663 L 636.7147913022135 236.37039175099997 L 623.1021218855468 243.1767264593333 Z"/></g></g><g><g><rect fill="white" stroke="none" x="672.5684682888802" y="260.873196701" width="165.72629251390626" height="19.602243960000003"/></g><text fill="black" stroke="none" font-family="Consolas" font-size="11pt" font-style="normal" font-weight="normal" text-decoration="normal" x="674.8302656688802" y="274.443980981" text-anchor="start" dominant-baseline="alphabetic" xml:space="preserve">list_append(message)</text></g><g><path fill="none" stroke="black" paint-order="fill stroke markers" d=" M 653.0499946022136 280.475440661 L 844.3639171057864 280.475440661" stroke-miterlimit="10" stroke-width="1.3612669416666667" stroke-dasharray=""/><g transform="translate(857.8132344894531,280.475440661) translate(-857.8132344894531,-280.475440661)"><path fill="black" stroke="none" paint-order="stroke fill markers" d=" M 844.2005650727864 273.66910595266665 L 857.8132344894531 280.475440661 L 844.2005650727864 287.28177536933333 Z"/></g></g><g><g><rect fill="white" stroke="none" x="704.8090078396615" y="304.978245611" width="101.24521341234374" height="19.602243960000003"/></g><text fill="black" stroke="none" font-family="Consolas" font-size="11pt" font-style="normal" font-weight="normal" text-decoration="normal" x="707.0708052196615" y="318.54902989100003" text-anchor="start" dominant-baseline="alphabetic" xml:space="preserve">Return value</text></g><g><path fill="none" stroke="black" paint-order="fill stroke markers" d=" M 857.8132344894531 324.580489571 L 666.4993119858802 324.580489571" stroke-miterlimit="10" stroke-width="1.3612669416666667" stroke-dasharray="6.53408132"/><g transform="translate(653.0499946022136,324.580489571) translate(-653.0499946022136,-324.580489571)"><path fill="black" stroke="none" paint-order="stroke fill markers" d=" M 666.6626640188803 317.77415486266665 L 653.0499946022136 324.580489571 L 666.6626640188803 331.3868242793333 Z"/></g></g><g><g><rect fill="white" stroke="none" x="691.6262054722135" y="349.08329452099997" width="326.9289902678125" height="19.602243960000003"/></g><text fill="black" stroke="none" font-family="Consolas" font-size="11pt" font-style="normal" font-weight="normal" text-decoration="normal" x="693.8880028522135" y="362.65407880099997" text-anchor="start" dominant-baseline="alphabetic" xml:space="preserve">k_work_reschedule(delayed_work, backoff)</text></g><g><path fill="none" stroke="black" paint-order="fill stroke markers" d=" M 653.0499946022136 368.685538481 L 1043.6820892263593 368.685538481" stroke-miterlimit="10" stroke-width="1.3612669416666667" stroke-dasharray=""/><g transform="translate(1057.131406610026,368.685538481) translate(-1057.131406610026,-368.685538481)"><path fill="black" stroke="none" paint-order="stroke fill markers" d=" M 1043.5187371933594 361.87920377266664 L 1057.131406610026 368.685538481 L 1043.5187371933594 375.4918731893333 Z"/></g></g><g><g><rect fill="white" stroke="none" x="804.4680938999479" y="393.18834343099996" width="101.24521341234374" height="19.602243960000003"/></g><text fill="black" stroke="none" font-family="Consolas" font-size="11pt" font-style="normal" font-weight="normal" text-decoration="normal" x="806.7298912799479" y="406.759127711" text-anchor="start" dominant-baseline="alphabetic" xml:space="preserve">Return value</text></g><g><path fill="none" stroke="black" paint-order="fill stroke markers" d=" M 1057.131406610026 412.790587391 L 666.4993119858802 412.790587391" stroke-miterlimit="10" stroke-width="1.3612669416666667" stroke-dasharray="6.53408132"/><g transform="translate(653.0499946022136,412.790587391) translate(-653.0499946022136,-412.790587391)"><path fill="black" stroke="none" paint-order="stroke fill markers" d=" M 666.6626640188803 405.98425268266664 L 653.0499946022136 412.790587391 L 666.6626640188803 419.5969220993333 Z"/></g></g><g><g><rect fill="white" stroke="none" x="439.37982277009763" y="437.29339234099996" width="157.66615762621095" height="19.602243960000003"/></g><text fill="black" stroke="none" font-family="Consolas" font-size="11pt" font-style="normal" font-weight="normal" text-decoration="normal" x="441.64162015009765" y="450.86417662099996" text-anchor="start" dominant-baseline="alphabetic" xml:space="preserve">QOS_EVT_MESSAGE_NEW</text></g><g><path fill="none" stroke="black" paint-order="fill stroke markers" d=" M 636.7147913022135 456.89563630099997 L 413.16032924785935 456.89563630099997" stroke-miterlimit="10" stroke-width="1.3612669416666667" stroke-dasharray=""/><g transform="translate(399.7110118641927,456.89563630099997) translate(-399.7110118641927,-456.89563630099997)"><path fill="black" stroke="none" paint-order="stroke fill markers" d=" M 413.3236812808594 450.08930159266663 L 399.7110118641927 456.89563630099997 L 413.3236812808594 463.7019710093333 Z"/></g></g><g><g><rect fill="white" stroke="none" x="141.65636476860024" y="481.39844125099995" width="189.9066971769922" height="19.602243960000003"/></g><text fill="black" stroke="none" font-family="Consolas" font-size="11pt" font-style="normal" font-weight="normal" text-decoration="normal" x="143.91816214860023" y="494.969225531" text-anchor="start" dominant-baseline="alphabetic" xml:space="preserve">transport_send(message)</text></g><g><path fill="none" stroke="black" paint-order="fill stroke markers" d=" M 383.3758085641927 501.00068521099996 L 103.29293553366665 501.00068521099996" stroke-miterlimit="10" stroke-width="1.3612669416666667" stroke-dasharray=""/><g transform="translate(89.84361814999998,501.00068521099996) translate(-89.84361814999998,-501.00068521099996)"><path fill="black" stroke="none" paint-order="stroke fill markers" d=" M 103.45628756666665 494.1943505026666 L 89.84361814999998 501.00068521099996 L 103.45628756666665 507.8070199193333 Z"/></g></g><g><g><rect fill="white" stroke="none" x="185.98710665092446" y="525.503490161" width="101.24521341234374" height="19.602243960000003"/></g><text fill="black" stroke="none" font-family="Consolas" font-size="11pt" font-style="normal" font-weight="normal" text-decoration="normal" x="188.24890403092445" y="539.074274441" text-anchor="start" dominant-baseline="alphabetic" xml:space="preserve">Return value</text></g><g><path fill="none" stroke="black" paint-order="fill stroke markers" d=" M 89.84361814999998 545.105734121 L 369.92649118052606 545.105734121" stroke-miterlimit="10" stroke-width="1.3612669416666667" stroke-dasharray="6.53408132"/><g transform="translate(383.3758085641927,545.105734121) translate(-383.3758085641927,-545.105734121)"><path fill="black" stroke="none" paint-order="stroke fill markers" d=" M 369.76313914752603 538.2993994126666 L 383.3758085641927 545.105734121 L 369.76313914752603 551.9120688293333 Z"/></g></g><g><g><rect fill="white" stroke="none" x="515.9511042032032" y="569.608539071" width="4.52359476" height="19.602243960000003"/></g><text fill="black" stroke="none" font-family="Consolas" font-size="11pt" font-style="normal" font-weight="normal" text-decoration="normal" x="518.2129015832031" y="583.179323351" text-anchor="start" dominant-baseline="alphabetic" xml:space="preserve"></text></g><g><path fill="none" stroke="black" paint-order="fill stroke markers" d=" M 399.7110118641927 589.210783031 L 623.2654739185468 589.210783031" stroke-miterlimit="10" stroke-width="1.3612669416666667" stroke-dasharray="6.53408132"/><g transform="translate(636.7147913022135,589.210783031) translate(-636.7147913022135,-589.210783031)"><path fill="black" stroke="none" paint-order="stroke fill markers" d=" M 623.1021218855468 582.4044483226667 L 636.7147913022135 589.210783031 L 623.1021218855468 596.0171177393333 Z"/></g></g><g><g><rect fill="white" stroke="none" x="463.5064940520312" y="613.713587981" width="101.24521341234374" height="19.602243960000003"/></g><text fill="black" stroke="none" font-family="Consolas" font-size="11pt" font-style="normal" font-weight="normal" text-decoration="normal" x="465.7682914320312" y="627.284372261" text-anchor="start" dominant-baseline="alphabetic" xml:space="preserve">Return value</text></g><g><path fill="none" stroke="black" paint-order="fill stroke markers" d=" M 636.7147913022135 633.315831941 L 404.99272759785936 633.315831941" stroke-miterlimit="10" stroke-width="1.3612669416666667" stroke-dasharray="6.53408132"/><g transform="translate(391.5434102141927,633.315831941) translate(-391.5434102141927,-633.315831941)"><path fill="black" stroke="none" paint-order="stroke fill markers" d=" M 405.1560796308594 626.5094972326667 L 391.5434102141927 633.315831941 L 405.1560796308594 640.1221666493334 Z"/></g></g><g><g><rect fill="white" stroke="none" x="109.36209183666666" y="657.8186368910001" width="246.32764139085938" height="19.602243960000003"/></g><text fill="black" stroke="none" font-family="Consolas" font-size="11pt" font-style="normal" font-weight="normal" text-decoration="normal" x="111.62388921666667" y="671.3894211710001" text-anchor="start" dominant-baseline="alphabetic" xml:space="preserve">TRANSPORT_MESSAGE_ACKNOWLEDGED</text></g><g><path fill="none" stroke="black" paint-order="fill stroke markers" d=" M 81.67601649999999 677.4208808510001 L 369.92649118052606 677.4208808510001" stroke-miterlimit="10" stroke-width="1.3612669416666667" stroke-dasharray=""/><g transform="translate(383.3758085641927,677.4208808510001) translate(-383.3758085641927,-677.4208808510001)"><path fill="black" stroke="none" paint-order="stroke fill markers" d=" M 369.76313914752603 670.6145461426668 L 383.3758085641927 677.4208808510001 L 369.76313914752603 684.2272155593334 Z"/></g></g><g><g><rect fill="white" stroke="none" x="427.28962043855466" y="701.9236858010001" width="181.84656228929688" height="19.602243960000003"/></g><text fill="black" stroke="none" font-family="Consolas" font-size="11pt" font-style="normal" font-weight="normal" text-decoration="normal" x="429.5514178185547" y="715.4944700810001" text-anchor="start" dominant-baseline="alphabetic" xml:space="preserve">qos_message_remove(id)</text></g><g><path fill="none" stroke="black" paint-order="fill stroke markers" d=" M 399.7110118641927 721.5259297610002 L 623.2654739185468 721.5259297610002" stroke-miterlimit="10" stroke-width="1.3612669416666667" stroke-dasharray=""/><g transform="translate(636.7147913022135,721.5259297610002) translate(-636.7147913022135,-721.5259297610002)"><path fill="black" stroke="none" paint-order="stroke fill markers" d=" M 623.1021218855468 714.7195950526668 L 636.7147913022135 721.5259297610002 L 623.1021218855468 728.3322644693335 Z"/></g></g><g><g><rect fill="white" stroke="none" x="692.7188055081185" y="746.0287347110002" width="125.42561807542968" height="19.602243960000003"/></g><text fill="black" stroke="none" font-family="Consolas" font-size="11pt" font-style="normal" font-weight="normal" text-decoration="normal" x="694.9806028881185" y="759.5995189910002" text-anchor="start" dominant-baseline="alphabetic" xml:space="preserve">list_remove(id)</text></g><g><path fill="none" stroke="black" paint-order="fill stroke markers" d=" M 653.0499946022136 765.6309786710002 L 844.3639171057864 765.6309786710002" stroke-miterlimit="10" stroke-width="1.3612669416666667" stroke-dasharray=""/><g transform="translate(857.8132344894531,765.6309786710002) translate(-857.8132344894531,-765.6309786710002)"><path fill="black" stroke="none" paint-order="stroke fill markers" d=" M 844.2005650727864 758.8246439626669 L 857.8132344894531 765.6309786710002 L 844.2005650727864 772.4373133793335 Z"/></g></g><g><g><rect fill="white" stroke="none" x="704.8090078396615" y="790.1337836210002" width="101.24521341234374" height="19.602243960000003"/></g><text fill="black" stroke="none" font-family="Consolas" font-size="11pt" font-style="normal" font-weight="normal" text-decoration="normal" x="707.0708052196615" y="803.7045679010002" text-anchor="start" dominant-baseline="alphabetic" xml:space="preserve">Return value</text></g><g><path fill="none" stroke="black" paint-order="fill stroke markers" d=" M 857.8132344894531 809.7360275810003 L 666.4993119858802 809.7360275810003" stroke-miterlimit="10" stroke-width="1.3612669416666667" stroke-dasharray="6.53408132"/><g transform="translate(653.0499946022136,809.7360275810003) translate(-653.0499946022136,-809.7360275810003)"><path fill="black" stroke="none" paint-order="stroke fill markers" d=" M 666.6626640188803 802.9296928726669 L 653.0499946022136 809.7360275810003 L 666.6626640188803 816.5423622893336 Z"/></g></g><g><g><rect fill="white" stroke="none" x="703.7164459507292" y="834.2388325310003" width="302.74850931078123" height="19.602243960000003"/></g><text fill="black" stroke="none" font-family="Consolas" font-size="11pt" font-style="normal" font-weight="normal" text-decoration="normal" x="705.9782433307291" y="847.8096168110003" text-anchor="start" dominant-baseline="alphabetic" xml:space="preserve">k_work_cancel_delayable(delayed_work)</text></g><g><path fill="none" stroke="black" paint-order="fill stroke markers" d=" M 653.0499946022136 853.8410764910003 L 1043.6820892263593 853.8410764910003" stroke-miterlimit="10" stroke-width="1.3612669416666667" stroke-dasharray=""/><g transform="translate(1057.131406610026,853.8410764910003) translate(-1057.131406610026,-853.8410764910003)"><path fill="black" stroke="none" paint-order="stroke fill markers" d=" M 1043.5187371933594 847.034741782667 L 1057.131406610026 853.8410764910003 L 1043.5187371933594 860.6474111993336 Z"/></g></g><g><g><rect fill="white" stroke="none" x="804.4680938999479" y="878.3438814410003" width="101.24521341234374" height="19.602243960000003"/></g><text fill="black" stroke="none" font-family="Consolas" font-size="11pt" font-style="normal" font-weight="normal" text-decoration="normal" x="806.7298912799479" y="891.9146657210003" text-anchor="start" dominant-baseline="alphabetic" xml:space="preserve">Return value</text></g><g><path fill="none" stroke="black" paint-order="fill stroke markers" d=" M 1057.131406610026 897.9461254010004 L 666.4993119858802 897.9461254010004" stroke-miterlimit="10" stroke-width="1.3612669416666667" stroke-dasharray="6.53408132"/><g transform="translate(653.0499946022136,897.9461254010004) translate(-653.0499946022136,-897.9461254010004)"><path fill="black" stroke="none" paint-order="stroke fill markers" d=" M 666.6626640188803 891.139790692667 L 653.0499946022136 897.9461254010004 L 666.6626640188803 904.7524601093337 Z"/></g></g><g><g><rect fill="white" stroke="none" x="467.5902948770312" y="922.4489303510004" width="101.24521341234374" height="19.602243960000003"/></g><text fill="black" stroke="none" font-family="Consolas" font-size="11pt" font-style="normal" font-weight="normal" text-decoration="normal" x="469.85209225703125" y="936.0197146310004" text-anchor="start" dominant-baseline="alphabetic" xml:space="preserve">Return value</text></g><g><path fill="none" stroke="black" paint-order="fill stroke markers" d=" M 636.7147913022135 942.0511743110004 L 413.16032924785935 942.0511743110004" stroke-miterlimit="10" stroke-width="1.3612669416666667" stroke-dasharray="6.53408132"/><g transform="translate(399.7110118641927,942.0511743110004) translate(-399.7110118641927,-942.0511743110004)"><path fill="black" stroke="none" paint-order="stroke fill markers" d=" M 413.3236812808594 935.2448396026671 L 399.7110118641927 942.0511743110004 L 413.3236812808594 948.8575090193337 Z"/></g></g><g><g><rect fill="white" stroke="none" x="230.26411515209637" y="966.5539792610004" width="4.52359476" height="19.602243960000003"/></g><text fill="black" stroke="none" font-family="Consolas" font-size="11pt" font-style="normal" font-weight="normal" text-decoration="normal" x="232.52591253209636" y="980.1247635410004" text-anchor="start" dominant-baseline="alphabetic" xml:space="preserve"></text></g><g><path fill="none" stroke="black" paint-order="fill stroke markers" d=" M 383.3758085641927 986.1562232210005 L 95.12533388366666 986.1562232210005" stroke-miterlimit="10" stroke-width="1.3612669416666667" stroke-dasharray="6.53408132"/><g transform="translate(81.67601649999999,986.1562232210005) translate(-81.67601649999999,-986.1562232210005)"><path fill="black" stroke="none" paint-order="stroke fill markers" d=" M 95.28868591666665 979.3498885126671 L 81.67601649999999 986.1562232210005 L 95.28868591666665 992.9625579293338 Z"/></g></g><g><g><rect fill="white" stroke="none" x="415.1456847258593" y="1054.7640770810006" width="197.9668320646875" height="19.602243960000003"/></g><text fill="black" stroke="none" font-family="Consolas" font-size="11pt" font-style="normal" font-weight="normal" text-decoration="normal" x="417.40748210585934" y="1068.3348613610005" text-anchor="start" dominant-baseline="alphabetic" xml:space="preserve">qos_add_message(message)</text></g><g><path fill="none" stroke="black" paint-order="fill stroke markers" d=" M 391.5434102141927 1074.3663210410004 L 623.2654739185468 1074.3663210410004" stroke-miterlimit="10" stroke-width="1.3612669416666667" stroke-dasharray=""/><g transform="translate(636.7147913022135,1074.3663210410004) translate(-636.7147913022135,-1074.3663210410004)"><path fill="black" stroke="none" paint-order="stroke fill markers" d=" M 623.1021218855468 1067.5599863326672 L 636.7147913022135 1074.3663210410004 L 623.1021218855468 1081.1726557493337 Z"/></g></g><g><g><rect fill="white" stroke="none" x="672.5684682888802" y="1098.8691259910006" width="165.72629251390626" height="19.602243960000003"/></g><text fill="black" stroke="none" font-family="Consolas" font-size="11pt" font-style="normal" font-weight="normal" text-decoration="normal" x="674.8302656688802" y="1112.4399102710006" text-anchor="start" dominant-baseline="alphabetic" xml:space="preserve">list_append(message)</text></g><g><path fill="none" stroke="black" paint-order="fill stroke markers" d=" M 653.0499946022136 1118.4713699510005 L 844.3639171057864 1118.4713699510005" stroke-miterlimit="10" stroke-width="1.3612669416666667" stroke-dasharray=""/><g transform="translate(857.8132344894531,1118.4713699510005) translate(-857.8132344894531,-1118.4713699510005)"><path fill="black" stroke="none" paint-order="stroke fill markers" d=" M 844.2005650727864 1111.6650352426673 L 857.8132344894531 1118.4713699510005 L 844.2005650727864 1125.2777046593337 Z"/></g></g><g><g><rect fill="white" stroke="none" x="704.8090078396615" y="1142.9741749010007" width="101.24521341234374" height="19.602243960000003"/></g><text fill="black" stroke="none" font-family="Consolas" font-size="11pt" font-style="normal" font-weight="normal" text-decoration="normal" x="707.0708052196615" y="1156.5449591810006" text-anchor="start" dominant-baseline="alphabetic" xml:space="preserve">Return value</text></g><g><path fill="none" stroke="black" paint-order="fill stroke markers" d=" M 857.8132344894531 1162.5764188610005 L 666.4993119858802 1162.5764188610005" stroke-miterlimit="10" stroke-width="1.3612669416666667" stroke-dasharray="6.53408132"/><g transform="translate(653.0499946022136,1162.5764188610005) translate(-653.0499946022136,-1162.5764188610005)"><path fill="black" stroke="none" paint-order="stroke fill markers" d=" M 666.6626640188803 1155.7700841526673 L 653.0499946022136 1162.5764188610005 L 666.6626640188803 1169.3827535693338 Z"/></g></g><g><g><rect fill="white" stroke="none" x="691.6262054722135" y="1187.0792238110007" width="326.9289902678125" height="19.602243960000003"/></g><text fill="black" stroke="none" font-family="Consolas" font-size="11pt" font-style="normal" font-weight="normal" text-decoration="normal" x="693.8880028522135" y="1200.6500080910007" text-anchor="start" dominant-baseline="alphabetic" xml:space="preserve">k_work_reschedule(delayed_work, backoff)</text></g><g><path fill="none" stroke="black" paint-order="fill stroke markers" d=" M 653.0499946022136 1206.6814677710006 L 1043.6820892263593 1206.6814677710006" stroke-miterlimit="10" stroke-width="1.3612669416666667" stroke-dasharray=""/><g transform="translate(1057.131406610026,1206.6814677710006) translate(-1057.131406610026,-1206.6814677710006)"><path fill="black" stroke="none" paint-order="stroke fill markers" d=" M 1043.5187371933594 1199.8751330626674 L 1057.131406610026 1206.6814677710006 L 1043.5187371933594 1213.4878024793338 Z"/></g></g><g><g><rect fill="white" stroke="none" x="804.4680938999479" y="1231.1842727210008" width="101.24521341234374" height="19.602243960000003"/></g><text fill="black" stroke="none" font-family="Consolas" font-size="11pt" font-style="normal" font-weight="normal" text-decoration="normal" x="806.7298912799479" y="1244.7550570010008" text-anchor="start" dominant-baseline="alphabetic" xml:space="preserve">Return value</text></g><g><path fill="none" stroke="black" paint-order="fill stroke markers" d=" M 1057.131406610026 1250.7865166810006 L 666.4993119858802 1250.7865166810006" stroke-miterlimit="10" stroke-width="1.3612669416666667" stroke-dasharray="6.53408132"/><g transform="translate(653.0499946022136,1250.7865166810006) translate(-653.0499946022136,-1250.7865166810006)"><path fill="black" stroke="none" paint-order="stroke fill markers" d=" M 666.6626640188803 1243.9801819726674 L 653.0499946022136 1250.7865166810006 L 666.6626640188803 1257.5928513893339 Z"/></g></g><g><g><rect fill="white" stroke="none" x="439.37982277009763" y="1275.2893216310008" width="157.66615762621095" height="19.602243960000003"/></g><text fill="black" stroke="none" font-family="Consolas" font-size="11pt" font-style="normal" font-weight="normal" text-decoration="normal" x="441.64162015009765" y="1288.8601059110008" text-anchor="start" dominant-baseline="alphabetic" xml:space="preserve">QOS_EVT_MESSAGE_NEW</text></g><g><path fill="none" stroke="black" paint-order="fill stroke markers" d=" M 636.7147913022135 1294.8915655910007 L 413.16032924785935 1294.8915655910007" stroke-miterlimit="10" stroke-width="1.3612669416666667" stroke-dasharray=""/><g transform="translate(399.7110118641927,1294.8915655910007) translate(-399.7110118641927,-1294.8915655910007)"><path fill="black" stroke="none" paint-order="stroke fill markers" d=" M 413.3236812808594 1288.0852308826675 L 399.7110118641927 1294.8915655910007 L 413.3236812808594 1301.697900299334 Z"/></g></g><g><g><rect fill="white" stroke="none" x="141.65636476860024" y="1319.3943705410009" width="189.9066971769922" height="19.602243960000003"/></g><text fill="black" stroke="none" font-family="Consolas" font-size="11pt" font-style="normal" font-weight="normal" text-decoration="normal" x="143.91816214860023" y="1332.9651548210009" text-anchor="start" dominant-baseline="alphabetic" xml:space="preserve">transport_send(message)</text></g><g><path fill="none" stroke="black" paint-order="fill stroke markers" d=" M 383.3758085641927 1338.9966145010007 L 103.29293553366665 1338.9966145010007" stroke-miterlimit="10" stroke-width="1.3612669416666667" stroke-dasharray=""/><g transform="translate(89.84361814999998,1338.9966145010007) translate(-89.84361814999998,-1338.9966145010007)"><path fill="black" stroke="none" paint-order="stroke fill markers" d=" M 103.45628756666665 1332.1902797926675 L 89.84361814999998 1338.9966145010007 L 103.45628756666665 1345.802949209334 Z"/></g></g><g><g><rect fill="white" stroke="none" x="185.98710665092446" y="1363.499419451001" width="101.24521341234374" height="19.602243960000003"/></g><text fill="black" stroke="none" font-family="Consolas" font-size="11pt" font-style="normal" font-weight="normal" text-decoration="normal" x="188.24890403092445" y="1377.070203731001" text-anchor="start" dominant-baseline="alphabetic" xml:space="preserve">Return value</text></g><g><path fill="none" stroke="black" paint-order="fill stroke markers" d=" M 89.84361814999998 1383.1016634110008 L 369.92649118052606 1383.1016634110008" stroke-miterlimit="10" stroke-width="1.3612669416666667" stroke-dasharray="6.53408132"/><g transform="translate(383.3758085641927,1383.1016634110008) translate(-383.3758085641927,-1383.1016634110008)"><path fill="black" stroke="none" paint-order="stroke fill markers" d=" M 369.76313914752603 1376.2953287026676 L 383.3758085641927 1383.1016634110008 L 369.76313914752603 1389.907998119334 Z"/></g></g><g><g><rect fill="white" stroke="none" x="515.9511042032032" y="1407.604468361001" width="4.52359476" height="19.602243960000003"/></g><text fill="black" stroke="none" font-family="Consolas" font-size="11pt" font-style="normal" font-weight="normal" text-decoration="normal" x="518.2129015832031" y="1421.175252641001" text-anchor="start" dominant-baseline="alphabetic" xml:space="preserve"></text></g><g><path fill="none" stroke="black" paint-order="fill stroke markers" d=" M 399.7110118641927 1427.2067123210009 L 623.2654739185468 1427.2067123210009" stroke-miterlimit="10" stroke-width="1.3612669416666667" stroke-dasharray="6.53408132"/><g transform="translate(636.7147913022135,1427.2067123210009) translate(-636.7147913022135,-1427.2067123210009)"><path fill="black" stroke="none" paint-order="stroke fill markers" d=" M 623.1021218855468 1420.4003776126676 L 636.7147913022135 1427.2067123210009 L 623.1021218855468 1434.013047029334 Z"/></g></g><g><g><rect fill="white" stroke="none" x="463.5064940520312" y="1451.709517271001" width="101.24521341234374" height="19.602243960000003"/></g><text fill="black" stroke="none" font-family="Consolas" font-size="11pt" font-style="normal" font-weight="normal" text-decoration="normal" x="465.7682914320312" y="1465.280301551001" text-anchor="start" dominant-baseline="alphabetic" xml:space="preserve">Return value</text></g><g><path fill="none" stroke="black" paint-order="fill stroke markers" d=" M 636.7147913022135 1471.311761231001 L 404.99272759785936 1471.311761231001" stroke-miterlimit="10" stroke-width="1.3612669416666667" stroke-dasharray="6.53408132"/><g transform="translate(391.5434102141927,1471.311761231001) translate(-391.5434102141927,-1471.311761231001)"><path fill="black" stroke="none" paint-order="stroke fill markers" d=" M 405.1560796308594 1464.5054265226677 L 391.5434102141927 1471.311761231001 L 405.1560796308594 1478.1180959393341 Z"/></g></g><g><g><rect fill="white" stroke="none" x="1092.985083596693" y="1495.8145661810008" width="157.66615762621095" height="19.602243960000003"/></g><text fill="black" stroke="none" font-family="Consolas" font-size="11pt" font-style="normal" font-weight="normal" text-decoration="normal" x="1095.2468809766929" y="1509.3853504610008" text-anchor="start" dominant-baseline="alphabetic" xml:space="preserve">k_work_timer_expire</text></g><g><path fill="none" stroke="black" paint-order="fill stroke markers" d=" M 1065.299008260026 1515.416810141001 L 1138.807423110026 1515.416810141001 L 1138.807423110026 1536.6525744310009 L 1086.915927293693 1536.6525744310009" stroke-miterlimit="10" stroke-width="1.3612669416666667" stroke-dasharray=""/><g transform="translate(1073.4666099100261,1536.6525744310009) translate(-1073.4666099100261,-1536.6525744310009)"><path fill="black" stroke="none" paint-order="stroke fill markers" d=" M 1087.0792793266928 1529.8462397226676 L 1073.4666099100261 1536.6525744310009 L 1087.0792793266928 1543.458909139334 Z"/></g></g><g><g><rect fill="white" stroke="none" x="752.0772171299284" y="1561.155379381001" width="206.02696695238282" height="19.602243960000003"/></g><text fill="black" stroke="none" font-family="Consolas" font-size="11pt" font-style="normal" font-weight="normal" text-decoration="normal" x="754.3390145099283" y="1574.726163661001" text-anchor="start" dominant-baseline="alphabetic" xml:space="preserve">timeout_handler_work_fn()</text></g><g><path fill="none" stroke="black" paint-order="fill stroke markers" d=" M 1057.131406610026 1580.757623341001 L 666.4993119858802 1580.757623341001" stroke-miterlimit="10" stroke-width="1.3612669416666667" stroke-dasharray=""/><g transform="translate(653.0499946022136,1580.757623341001) translate(-653.0499946022136,-1580.757623341001)"><path fill="black" stroke="none" paint-order="stroke fill markers" d=" M 666.6626640188803 1573.9512886326677 L 653.0499946022136 1580.757623341001 L 666.6626640188803 1587.5639580493341 Z"/></g></g><g><g><rect fill="white" stroke="none" x="423.259552994707" y="1605.260428291001" width="189.9066971769922" height="19.602243960000003"/></g><text fill="black" stroke="none" font-family="Consolas" font-size="11pt" font-style="normal" font-weight="normal" text-decoration="normal" x="425.521350374707" y="1618.831212571001" text-anchor="start" dominant-baseline="alphabetic" xml:space="preserve">QOS_EVT_MESSAGE_EXPIRED</text></g><g><path fill="none" stroke="black" paint-order="fill stroke markers" d=" M 636.7147913022135 1624.862672251001 L 413.16032924785935 1624.862672251001" stroke-miterlimit="10" stroke-width="1.3612669416666667" stroke-dasharray=""/><g transform="translate(399.7110118641927,1624.862672251001) translate(-399.7110118641927,-1624.862672251001)"><path fill="black" stroke="none" paint-order="stroke fill markers" d=" M 413.3236812808594 1618.0563375426677 L 399.7110118641927 1624.862672251001 L 413.3236812808594 1631.6690069593342 Z"/></g></g><g><g><rect fill="white" stroke="none" x="141.65636476860024" y="1649.365477201001" width="189.9066971769922" height="19.602243960000003"/></g><text fill="black" stroke="none" font-family="Consolas" font-size="11pt" font-style="normal" font-weight="normal" text-decoration="normal" x="143.91816214860023" y="1662.936261481001" text-anchor="start" dominant-baseline="alphabetic" xml:space="preserve">transport_send(message)</text></g><g><path fill="none" stroke="black" paint-order="fill stroke markers" d=" M 383.3758085641927 1668.967721161001 L 103.29293553366665 1668.967721161001" stroke-miterlimit="10" stroke-width="1.3612669416666667" stroke-dasharray=""/><g transform="translate(89.84361814999998,1668.967721161001) translate(-89.84361814999998,-1668.967721161001)"><path fill="black" stroke="none" paint-order="stroke fill markers" d=" M 103.45628756666665 1662.1613864526678 L 89.84361814999998 1668.967721161001 L 103.45628756666665 1675.7740558693342 Z"/></g></g><g><g><rect fill="white" stroke="none" x="185.98710665092446" y="1693.4705261110012" width="101.24521341234374" height="19.602243960000003"/></g><text fill="black" stroke="none" font-family="Consolas" font-size="11pt" font-style="normal" font-weight="normal" text-decoration="normal" x="188.24890403092445" y="1707.0413103910012" text-anchor="start" dominant-baseline="alphabetic" xml:space="preserve">Return value</text></g><g><path fill="none" stroke="black" paint-order="fill stroke markers" d=" M 89.84361814999998 1713.072770071001 L 369.92649118052606 1713.072770071001" stroke-miterlimit="10" stroke-width="1.3612669416666667" stroke-dasharray="6.53408132"/><g transform="translate(383.3758085641927,1713.072770071001) translate(-383.3758085641927,-1713.072770071001)"><path fill="black" stroke="none" paint-order="stroke fill markers" d=" M 369.76313914752603 1706.2664353626678 L 383.3758085641927 1713.072770071001 L 369.76313914752603 1719.8791047793343 Z"/></g></g><g><g><rect fill="white" stroke="none" x="515.9511042032032" y="1737.5755750210012" width="4.52359476" height="19.602243960000003"/></g><text fill="black" stroke="none" font-family="Consolas" font-size="11pt" font-style="normal" font-weight="normal" text-decoration="normal" x="518.2129015832031" y="1751.1463593010012" text-anchor="start" dominant-baseline="alphabetic" xml:space="preserve"></text></g><g><path fill="none" stroke="black" paint-order="fill stroke markers" d=" M 399.7110118641927 1757.177818981001 L 623.2654739185468 1757.177818981001" stroke-miterlimit="10" stroke-width="1.3612669416666667" stroke-dasharray="6.53408132"/><g transform="translate(636.7147913022135,1757.177818981001) translate(-636.7147913022135,-1757.177818981001)"><path fill="black" stroke="none" paint-order="stroke fill markers" d=" M 623.1021218855468 1750.3714842726679 L 636.7147913022135 1757.177818981001 L 623.1021218855468 1763.9841536893343 Z"/></g></g><g><g><rect fill="white" stroke="none" x="852.8289032261198" y="1781.6806239310013" width="4.52359476" height="19.602243960000003"/></g><text fill="black" stroke="none" font-family="Consolas" font-size="11pt" font-style="normal" font-weight="normal" text-decoration="normal" x="855.0907006061198" y="1795.2514082110013" text-anchor="start" dominant-baseline="alphabetic" xml:space="preserve"></text></g><g><path fill="none" stroke="black" paint-order="fill stroke markers" d=" M 653.0499946022136 1801.2828678910012 L 1043.6820892263593 1801.2828678910012" stroke-miterlimit="10" stroke-width="1.3612669416666667" stroke-dasharray="6.53408132"/><g transform="translate(1057.131406610026,1801.2828678910012) translate(-1057.131406610026,-1801.2828678910012)"><path fill="black" stroke="none" paint-order="stroke fill markers" d=" M 1043.5187371933594 1794.476533182668 L 1057.131406610026 1801.2828678910012 L 1043.5187371933594 1808.0892025993344 Z"/></g></g><g><g><rect fill="white" stroke="none" x="109.36209183666666" y="1825.7856728410013" width="246.32764139085938" height="19.602243960000003"/></g><text fill="black" stroke="none" font-family="Consolas" font-size="11pt" font-style="normal" font-weight="normal" text-decoration="normal" x="111.62388921666667" y="1839.3564571210013" text-anchor="start" dominant-baseline="alphabetic" xml:space="preserve">TRANSPORT_MESSAGE_ACKNOWLEDGED</text></g><g><path fill="none" stroke="black" paint-order="fill stroke markers" d=" M 81.67601649999999 1845.3879168010012 L 369.92649118052606 1845.3879168010012" stroke-miterlimit="10" stroke-width="1.3612669416666667" stroke-dasharray=""/><g transform="translate(383.3758085641927,1845.3879168010012) translate(-383.3758085641927,-1845.3879168010012)"><path fill="black" stroke="none" paint-order="stroke fill markers" d=" M 369.76313914752603 1838.581582092668 L 383.3758085641927 1845.3879168010012 L 369.76313914752603 1852.1942515093344 Z"/></g></g><g><g><rect fill="white" stroke="none" x="427.28962043855466" y="1869.8907217510014" width="181.84656228929688" height="19.602243960000003"/></g><text fill="black" stroke="none" font-family="Consolas" font-size="11pt" font-style="normal" font-weight="normal" text-decoration="normal" x="429.5514178185547" y="1883.4615060310014" text-anchor="start" dominant-baseline="alphabetic" xml:space="preserve">qos_message_remove(id)</text></g><g><path fill="none" stroke="black" paint-order="fill stroke markers" d=" M 399.7110118641927 1889.4929657110013 L 623.2654739185468 1889.4929657110013" stroke-miterlimit="10" stroke-width="1.3612669416666667" stroke-dasharray=""/><g transform="translate(636.7147913022135,1889.4929657110013) translate(-636.7147913022135,-1889.4929657110013)"><path fill="black" stroke="none" paint-order="stroke fill markers" d=" M 623.1021218855468 1882.686631002668 L 636.7147913022135 1889.4929657110013 L 623.1021218855468 1896.2993004193345 Z"/></g></g><g><g><rect fill="white" stroke="none" x="692.7188055081185" y="1913.9957706610014" width="125.42561807542968" height="19.602243960000003"/></g><text fill="black" stroke="none" font-family="Consolas" font-size="11pt" font-style="normal" font-weight="normal" text-decoration="normal" x="694.9806028881185" y="1927.5665549410014" text-anchor="start" dominant-baseline="alphabetic" xml:space="preserve">list_remove(id)</text></g><g><path fill="none" stroke="black" paint-order="fill stroke markers" d=" M 653.0499946022136 1933.5980146210013 L 844.3639171057864 1933.5980146210013" stroke-miterlimit="10" stroke-width="1.3612669416666667" stroke-dasharray=""/><g transform="translate(857.8132344894531,1933.5980146210013) translate(-857.8132344894531,-1933.5980146210013)"><path fill="black" stroke="none" paint-order="stroke fill markers" d=" M 844.2005650727864 1926.791679912668 L 857.8132344894531 1933.5980146210013 L 844.2005650727864 1940.4043493293345 Z"/></g></g><g><g><rect fill="white" stroke="none" x="704.8090078396615" y="1958.1008195710015" width="101.24521341234374" height="19.602243960000003"/></g><text fill="black" stroke="none" font-family="Consolas" font-size="11pt" font-style="normal" font-weight="normal" text-decoration="normal" x="707.0708052196615" y="1971.6716038510015" text-anchor="start" dominant-baseline="alphabetic" xml:space="preserve">Return value</text></g><g><path fill="none" stroke="black" paint-order="fill stroke markers" d=" M 857.8132344894531 1977.7030635310014 L 666.4993119858802 1977.7030635310014" stroke-miterlimit="10" stroke-width="1.3612669416666667" stroke-dasharray="6.53408132"/><g transform="translate(653.0499946022136,1977.7030635310014) translate(-653.0499946022136,-1977.7030635310014)"><path fill="black" stroke="none" paint-order="stroke fill markers" d=" M 666.6626640188803 1970.8967288226681 L 653.0499946022136 1977.7030635310014 L 666.6626640188803 1984.5093982393346 Z"/></g></g><g><g><rect fill="white" stroke="none" x="707.8002467757292" y="2002.2058684810015" width="302.74850931078123" height="19.602243960000003"/></g><text fill="black" stroke="none" font-family="Consolas" font-size="11pt" font-style="normal" font-weight="normal" text-decoration="normal" x="710.0620441557292" y="2015.7766527610015" text-anchor="start" dominant-baseline="alphabetic" xml:space="preserve">k_work_cancel_delayable(delayed_work)</text></g><g><path fill="none" stroke="black" paint-order="fill stroke markers" d=" M 653.0499946022136 2021.8081124410014 L 1051.8496908763593 2021.8081124410014" stroke-miterlimit="10" stroke-width="1.3612669416666667" stroke-dasharray=""/><g transform="translate(1065.299008260026,2021.8081124410014) translate(-1065.299008260026,-2021.8081124410014)"><path fill="black" stroke="none" paint-order="stroke fill markers" d=" M 1051.6863388433594 2015.0017777326682 L 1065.299008260026 2021.8081124410014 L 1051.6863388433594 2028.6144471493346 Z"/></g></g><g><g><rect fill="white" stroke="none" x="808.5518947249479" y="2046.3109173910013" width="101.24521341234374" height="19.602243960000003"/></g><text fill="black" stroke="none" font-family="Consolas" font-size="11pt" font-style="normal" font-weight="normal" text-decoration="normal" x="810.8136921049479" y="2059.8817016710013" text-anchor="start" dominant-baseline="alphabetic" xml:space="preserve">Return value</text></g><g><path fill="none" stroke="black" paint-order="fill stroke markers" d=" M 1065.299008260026 2065.9131613510012 L 666.4993119858802 2065.9131613510012" stroke-miterlimit="10" stroke-width="1.3612669416666667" stroke-dasharray="6.53408132"/><g transform="translate(653.0499946022136,2065.9131613510012) translate(-653.0499946022136,-2065.9131613510012)"><path fill="black" stroke="none" paint-order="stroke fill markers" d=" M 666.6626640188803 2059.106826642668 L 653.0499946022136 2065.9131613510012 L 666.6626640188803 2072.7194960593347 Z"/></g></g><g><g><rect fill="white" stroke="none" x="467.5902948770312" y="2090.415966301001" width="101.24521341234374" height="19.602243960000003"/></g><text fill="black" stroke="none" font-family="Consolas" font-size="11pt" font-style="normal" font-weight="normal" text-decoration="normal" x="469.85209225703125" y="2103.986750581001" text-anchor="start" dominant-baseline="alphabetic" xml:space="preserve">Return value</text></g><g><path fill="none" stroke="black" paint-order="fill stroke markers" d=" M 636.7147913022135 2110.018210261001 L 413.16032924785935 2110.018210261001" stroke-miterlimit="10" stroke-width="1.3612669416666667" stroke-dasharray="6.53408132"/><g transform="translate(399.7110118641927,2110.018210261001) translate(-399.7110118641927,-2110.018210261001)"><path fill="black" stroke="none" paint-order="stroke fill markers" d=" M 413.3236812808594 2103.2118755526676 L 399.7110118641927 2110.018210261001 L 413.3236812808594 2116.8245449693345 Z"/></g></g><g><g><rect fill="white" stroke="none" x="230.26411515209637" y="2134.5210152110008" width="4.52359476" height="19.602243960000003"/></g><text fill="black" stroke="none" font-family="Consolas" font-size="11pt" font-style="normal" font-weight="normal" text-decoration="normal" x="232.52591253209636" y="2148.091799491001" text-anchor="start" dominant-baseline="alphabetic" xml:space="preserve"></text></g><g><path fill="none" stroke="black" paint-order="fill stroke markers" d=" M 383.3758085641927 2154.123259171001 L 95.12533388366666 2154.123259171001" stroke-miterlimit="10" stroke-width="1.3612669416666667" stroke-dasharray="6.53408132"/><g transform="translate(81.67601649999999,2154.123259171001) translate(-81.67601649999999,-2154.123259171001)"><path fill="black" stroke="none" paint-order="stroke fill markers" d=" M 95.28868591666665 2147.3169244626674 L 81.67601649999999 2154.123259171001 L 95.28868591666665 2160.9295938793343 Z"/></g></g><g><g/><path fill="none" stroke="black" paint-order="fill stroke markers" d=" M 16.33520329999999 1010.6590281710004 L 1256.5570454929039 1010.6590281710004 L 1256.5570454929039 2178.626064121001 L 16.33520329999999 2178.626064121001 L 16.33520329999999 1010.6590281710004 Z" stroke-miterlimit="10" stroke-width="2.3336004714285714" stroke-dasharray=""/><path fill="white" stroke="black" paint-order="fill stroke markers" d=" M 16.33520329999999 1010.6590281710004 L 16.33520329999999 1030.2612721310004 L 190.88808670664062 1030.2612721310004 L 200.68920868664063 1020.4601501510003 L 200.68920868664063 1010.6590281710004 L 16.33520329999999 1010.6590281710004" stroke-miterlimit="10" stroke-width="2.3336004714285714" stroke-dasharray=""/><text fill="black" stroke="none" font-family="Consolas" font-size="8.8pt" font-style="normal" font-weight="bold" text-decoration="normal" x="32.67040659999999" y="1023.7271908110004" text-anchor="start" dominant-baseline="alphabetic" xml:space="preserve">Single unACKed message</text></g></g></g></svg>